<?xml version="1.0" standalone="no"?>
<!DOCTYPE svg PUBLIC "-//W3C//DTD SVG 20010904//EN"
 "http://www.w3.org/TR/2001/REC-SVG-20010904/DTD/svg10.dtd">
<svg version="1.0" xmlns="http://www.w3.org/2000/svg"
 width="1322.000000pt" height="1322.000000pt" viewBox="0 0 1322.000000 1322.000000"
 preserveAspectRatio="xMidYMid meet">
<metadata>
Created by potrace 1.11, written by Peter Selinger 2001-2013
</metadata>
<g transform="translate(0.000000,1322.000000) scale(0.100000,-0.100000)"
fill="#000000" stroke="none">
<path d="M2220 11870 c-50 -14 -113 -53 -147 -88 -40 -42 -79 -120 -87 -172
-3 -19 -12 -64 -20 -100 -14 -59 -81 -379 -92 -440 -3 -14 -18 -91 -34 -172
-34 -172 -33 -162 -65 -343 -44 -253 -74 -429 -81 -480 -3 -27 -8 -53 -10 -56
-1 -3 -6 -28 -9 -56 -3 -27 -8 -60 -10 -73 -2 -13 -9 -58 -15 -100 -6 -42 -12
-85 -14 -96 -2 -10 -7 -46 -12 -79 -4 -33 -8 -62 -9 -65 0 -3 -5 -32 -9 -65
-4 -33 -9 -73 -11 -90 -3 -16 -9 -68 -15 -115 -6 -47 -13 -103 -16 -125 -2
-22 -7 -58 -10 -80 -2 -22 -7 -56 -9 -75 -7 -45 -12 -99 -20 -180 -3 -36 -8
-81 -10 -100 -2 -19 -7 -64 -10 -100 -3 -36 -8 -81 -10 -100 -2 -19 -6 -69
-10 -110 -3 -41 -8 -91 -10 -110 -2 -19 -7 -71 -10 -115 -3 -44 -7 -102 -10
-130 -16 -177 -37 -532 -50 -832 -3 -76 -8 -190 -10 -253 -3 -63 -7 -265 -10
-447 -3 -228 -8 -340 -16 -355 -35 -68 -367 -580 -533 -821 -224 -328 -566
-799 -785 -1080 -24 -31 -42 -59 -40 -60 97 -79 320 -247 326 -247 12 1 404
521 576 765 140 198 212 301 329 474 76 112 138 198 139 190 1 -8 2 -104 4
-214 11 -701 31 -1361 50 -1655 3 -41 8 -118 10 -170 3 -52 7 -122 10 -155 2
-33 7 -100 10 -150 3 -49 8 -106 10 -125 2 -19 7 -73 10 -120 3 -47 8 -101 10
-120 2 -19 7 -64 10 -100 4 -36 8 -78 10 -95 2 -16 6 -61 10 -100 4 -38 9 -77
10 -85 2 -8 6 -44 10 -80 3 -36 8 -72 10 -80 2 -8 7 -40 10 -70 3 -30 10 -80
15 -110 6 -30 12 -71 14 -90 20 -154 74 -267 179 -371 143 -142 360 -195 567
-140 133 36 408 240 749 556 164 152 594 588 807 821 16 17 72 78 125 135 114
123 122 132 219 239 41 46 84 93 95 104 170 175 474 559 664 836 l93 135 -6
-345 c-20 -1168 -20 -1091 2 -1141 71 -163 278 -207 406 -86 26 26 104 140
198 292 86 138 280 450 433 695 153 245 283 454 289 465 6 11 25 40 41 65 16
25 34 54 41 65 11 21 252 407 289 465 13 19 156 249 319 510 162 261 300 480
306 487 5 7 10 14 10 17 0 2 43 73 96 157 53 85 104 166 113 182 9 15 40 64
69 110 l52 82 -5 -500 c-3 -275 -7 -711 -10 -970 -6 -612 -16 -1581 -19 -1860
-2 -170 1 -230 12 -265 57 -178 286 -236 416 -105 22 23 56 71 74 106 18 35
61 118 95 184 35 66 94 179 132 250 80 153 159 305 225 430 26 50 74 142 107
205 34 63 84 160 113 215 29 55 75 143 102 195 82 156 178 340 223 425 23 44
71 134 105 200 35 66 80 152 100 190 21 39 68 129 105 200 99 191 184 352 220
420 18 33 72 137 121 230 49 94 103 197 121 230 17 33 53 102 78 153 26 51 49
91 52 89 6 -7 11 -43 17 -137 4 -47 8 -105 10 -130 3 -25 7 -88 11 -140 4 -52
8 -111 10 -130 2 -19 6 -80 9 -135 4 -55 8 -118 11 -140 2 -22 7 -87 10 -145
4 -58 8 -123 10 -145 2 -22 7 -87 10 -145 4 -58 8 -123 10 -145 1 -22 6 -85 9
-140 4 -55 9 -127 11 -160 2 -33 7 -100 10 -150 7 -117 15 -228 20 -290 2 -28
7 -96 10 -150 3 -55 8 -116 10 -135 2 -19 7 -82 10 -140 3 -58 8 -125 10 -150
3 -25 7 -83 10 -130 3 -47 7 -107 10 -135 2 -27 7 -81 10 -120 3 -38 7 -95 10
-125 3 -30 7 -83 10 -117 23 -287 27 -303 97 -380 68 -72 127 -97 234 -95 124
1 221 75 278 208 341 801 772 1542 1190 2044 39 47 82 98 96 115 45 53 313
319 388 384 39 35 72 67 72 71 0 4 -9 18 -21 31 -11 13 -30 35 -42 49 -12 14
-44 52 -72 85 -27 33 -64 76 -82 95 -18 19 -33 38 -33 43 0 18 -28 3 -89 -50
-90 -78 -383 -372 -456 -458 -33 -38 -62 -72 -65 -75 -10 -9 -156 -195 -221
-280 -59 -78 -323 -470 -360 -536 -9 -16 -42 -71 -73 -123 -31 -51 -56 -95
-56 -96 0 -2 -23 -43 -52 -92 -28 -48 -116 -216 -195 -371 -78 -156 -143 -280
-144 -275 0 4 -2 31 -4 58 -2 28 -7 88 -10 135 -3 47 -8 108 -10 135 -2 28 -7
88 -10 135 -3 47 -8 110 -10 140 -6 76 -15 210 -21 305 -2 44 -7 103 -9 130
-5 52 -15 200 -20 295 -1 30 -6 93 -9 140 -4 47 -9 114 -11 150 -2 36 -7 110
-10 165 -4 55 -8 116 -10 135 -2 19 -6 89 -10 155 -4 66 -9 128 -11 137 -1 10
-6 66 -9 125 -4 59 -8 124 -10 143 -2 19 -6 82 -10 140 -4 58 -8 121 -10 140
-2 19 -6 69 -9 110 -4 41 -8 95 -11 120 -2 25 -7 79 -10 120 -9 117 -15 191
-20 240 -2 25 -9 101 -15 170 -16 175 -31 222 -88 279 -102 101 -261 100 -359
-1 -18 -18 -53 -73 -78 -123 -103 -199 -189 -362 -205 -390 -10 -16 -59 -111
-110 -210 -51 -99 -101 -193 -110 -210 -10 -16 -55 -102 -100 -190 -45 -88
-99 -191 -120 -230 -20 -38 -67 -126 -103 -195 -35 -69 -86 -165 -112 -215
-26 -49 -76 -144 -110 -210 -35 -66 -76 -145 -93 -175 -16 -30 -64 -122 -107
-205 -42 -82 -92 -177 -110 -210 -18 -33 -67 -127 -110 -210 -43 -82 -97 -186
-120 -230 -23 -44 -68 -129 -100 -190 -32 -60 -81 -155 -110 -210 -29 -55 -67
-127 -85 -160 l-31 -60 6 535 c3 294 8 776 11 1070 2 294 7 702 9 905 10 934
10 965 -15 1017 -69 147 -248 194 -380 100 -47 -33 -24 3 -530 -812 -156 -250
-297 -477 -315 -505 -43 -67 -108 -171 -120 -193 -5 -9 -39 -63 -75 -120 -36
-56 -74 -118 -85 -136 -20 -32 -135 -217 -185 -296 -14 -22 -65 -104 -113
-182 -49 -79 -118 -191 -155 -249 -78 -124 -280 -448 -302 -484 -96 -159 -384
-614 -387 -611 -5 5 -4 198 2 496 2 113 7 385 10 605 l6 400 127 255 c70 140
146 296 169 345 23 50 55 120 72 157 41 91 176 405 212 496 34 85 38 162 12
219 -10 21 -85 125 -168 232 -82 106 -191 247 -242 312 -130 169 -147 188
-206 214 -131 60 -279 2 -339 -132 -20 -46 -20 -24 -34 -853 -10 -601 -12
-766 -15 -950 l-2 -174 -80 -141 c-262 -463 -573 -905 -886 -1260 -58 -66
-113 -127 -121 -135 -8 -9 -51 -55 -95 -104 -44 -48 -93 -103 -110 -120 -16
-18 -75 -82 -130 -142 -648 -705 -1178 -1204 -1426 -1342 -64 -36 -117 -36
-173 0 -52 34 -69 77 -91 228 -3 25 -8 56 -10 70 -5 31 -32 245 -40 320 -4 30
-8 66 -10 80 -2 14 -7 57 -10 95 -3 39 -7 88 -10 110 -5 45 -14 152 -20 235
-2 30 -6 82 -9 115 -3 33 -8 98 -11 145 -3 47 -8 117 -10 155 -4 65 -9 154
-20 360 -25 498 -41 1161 -46 2006 l-2 356 145 244 c166 280 324 556 425 744
39 72 82 150 95 175 199 361 524 1026 730 1490 54 124 106 239 114 257 34 75
218 514 242 578 23 60 26 86 26 185 0 93 -4 128 -22 184 -18 54 -253 498 -572
1081 -15 28 -49 91 -75 140 -26 50 -51 95 -55 100 -4 6 -30 53 -58 105 -88
166 -103 194 -129 240 -14 25 -39 72 -56 104 -68 128 -160 189 -287 192 -41 1
-86 -1 -100 -6z m206 -732 c77 -144 123 -228 154 -283 9 -16 41 -75 70 -130
29 -55 74 -138 100 -185 26 -47 64 -116 85 -155 50 -94 96 -178 132 -245 17
-30 47 -86 68 -125 21 -38 56 -101 78 -140 63 -113 62 -139 -17 -330 -37 -88
-71 -169 -76 -180 -5 -11 -30 -69 -55 -130 -26 -60 -55 -128 -65 -150 -10 -22
-33 -76 -53 -120 -19 -44 -44 -100 -55 -125 -11 -25 -32 -70 -45 -100 -96
-214 -162 -352 -332 -695 -168 -338 -309 -610 -410 -790 -15 -28 -44 -79 -63
-115 -20 -36 -46 -83 -59 -105 -12 -22 -34 -60 -48 -85 l-25 -45 5 120 c3 66
8 176 10 245 3 69 8 159 10 200 10 188 16 279 20 330 3 30 7 89 10 130 5 79 8
113 30 380 3 41 8 91 10 110 2 19 7 64 10 100 3 36 8 81 10 100 2 19 7 64 10
100 3 36 8 76 10 90 2 14 7 54 10 90 3 36 8 76 10 90 2 14 6 52 10 85 4 32 8
67 10 76 2 10 6 45 10 78 3 33 7 68 9 78 2 10 7 45 10 78 4 33 9 71 11 85 8
42 14 82 20 135 4 28 17 120 30 205 13 85 27 173 30 195 3 22 8 51 11 65 3 14
8 41 10 60 3 19 18 112 35 205 17 94 35 197 40 229 6 33 12 62 14 65 2 4 6 27
10 51 3 25 19 110 35 190 16 80 31 156 34 170 21 107 49 240 52 240 1 0 37
-64 80 -142z m3206 -4809 l58 -76 -56 -129 c-30 -71 -64 -147 -74 -169 l-19
-40 3 225 c2 124 5 241 5 260 2 40 -6 46 83 -71z"/>
<path d="M12863 5887 c-50 -40 -123 -97 -162 -127 -39 -30 -70 -58 -68 -62 1
-3 60 -79 130 -167 105 -134 130 -160 141 -149 7 7 81 66 164 131 l150 119
-124 159 c-69 87 -128 161 -133 163 -4 3 -48 -28 -98 -67z"/>
</g>
</svg>
